<?xml version="1.0" encoding="UTF-8" standalone="no"?>
<!-- Generator: Gravit.io -->

<svg
   xmlns:dc="http://purl.org/dc/elements/1.1/"
   xmlns:cc="http://creativecommons.org/ns#"
   xmlns:rdf="http://www.w3.org/1999/02/22-rdf-syntax-ns#"
   xmlns:svg="http://www.w3.org/2000/svg"
   xmlns="http://www.w3.org/2000/svg"
   xmlns:xlink="http://www.w3.org/1999/xlink"
   xmlns:sodipodi="http://sodipodi.sourceforge.net/DTD/sodipodi-0.dtd"
   xmlns:inkscape="http://www.inkscape.org/namespaces/inkscape"
   style="isolation:isolate"
   viewBox="0 0 128 128"
   width="128"
   height="128"
   version="1.1"
   id="svg3901"
   sodipodi:docname="com.github.bartzaalberg.vala-tester.svg"
   inkscape:version="0.92.3 (2405546, 2018-03-11)">
  <metadata
     id="metadata3907">
    <rdf:RDF>
      <cc:Work
         rdf:about="">
        <dc:format>image/svg+xml</dc:format>
        <dc:type
           rdf:resource="http://purl.org/dc/dcmitype/StillImage" />
        <dc:title></dc:title>
      </cc:Work>
    </rdf:RDF>
  </metadata>
  <defs
     id="defs3905">
    <linearGradient
       inkscape:collect="always"
       id="linearGradient5075">
      <stop
         style="stop-color:#695c89;stop-opacity:1;"
         offset="0"
         id="stop5071" />
      <stop
         style="stop-color:#695c89;stop-opacity:0;"
         offset="1"
         id="stop5073" />
    </linearGradient>
    <radialGradient
       r="2.5"
       gradientTransform="matrix(2.0038,0,0,1.4,27.988,-17.4)"
       cx="4.993"
       cy="43.5"
       gradientUnits="userSpaceOnUse"
       id="a">
      <stop
         id="stop1114"
         offset="0"
         stop-color="#181818" />
      <stop
         id="stop1116"
         offset="1"
         stop-opacity="0"
         stop-color="#181818" />
    </radialGradient>
    <radialGradient
       r="2.5"
       gradientTransform="matrix(2.0038,0,0,1.4,-20.012,-104.4)"
       cx="4.993"
       cy="43.5"
       gradientUnits="userSpaceOnUse"
       id="b">
      <stop
         id="stop1119"
         offset="0"
         stop-color="#181818" />
      <stop
         id="stop1121"
         offset="1"
         stop-opacity="0"
         stop-color="#181818" />
    </radialGradient>
    <linearGradient
       x1="25.058"
       y1="47.028"
       x2="25.058"
       gradientUnits="userSpaceOnUse"
       y2="39.999"
       id="c">
      <stop
         id="stop1124"
         offset="0"
         stop-opacity="0"
         stop-color="#181818" />
      <stop
         id="stop1126"
         offset=".5"
         stop-color="#181818" />
      <stop
         id="stop1128"
         offset="1"
         stop-opacity="0"
         stop-color="#181818" />
    </linearGradient>
    <linearGradient
       x1="24"
       y1="5"
       gradientTransform="matrix(1.4324,0,0,1.4363,-2.378,-2.47)"
       x2="24"
       gradientUnits="userSpaceOnUse"
       y2="43"
       id="e">
      <stop
         id="stop1131"
         offset="0"
         stop-color="#fff" />
      <stop
         id="stop1133"
         offset=".063"
         stop-opacity=".235"
         stop-color="#fff" />
      <stop
         id="stop1135"
         offset=".951"
         stop-opacity=".157"
         stop-color="#fff" />
      <stop
         id="stop1137"
         offset="1"
         stop-opacity=".392"
         stop-color="#fff" />
    </linearGradient>
    <radialGradient
       r="12.672"
       gradientTransform="matrix(0,13.394,-16.444,0,196.9,-114.89)"
       cx="6.73"
       cy="9.957"
       gradientUnits="userSpaceOnUse"
       fx="6.2"
       id="d">
      <stop
         id="stop1140"
         offset="0"
         stop-color="#bd94e7" />
      <stop
         id="stop1142"
         offset=".262"
         stop-color="#7b6ca3" />
      <stop
         id="stop1144"
         offset=".705"
         stop-color="#574a76" />
      <stop
         id="stop1146"
         offset="1"
         stop-color="#3f3654" />
    </radialGradient>
    <clipPath
       clipPathUnits="userSpaceOnUse"
       id="clipPath5025">
      <g
         id="use5027"
         inkscape:label="Clip">
        <rect
           style="opacity:0.98000004;fill:#685d80;fill-opacity:1;stroke:#f9f9f9;stroke-width:0;stroke-miterlimit:4;stroke-dasharray:none;stroke-opacity:1"
           id="rect5029"
           width="27.779377"
           height="32.53717"
           x="-2.6091127"
           y="37.601917" />
      </g>
    </clipPath>
    <linearGradient
       inkscape:collect="always"
       xlink:href="#linearGradient5075"
       id="linearGradient5077"
       x1="73.669067"
       y1="116.94964"
       x2="63.846523"
       y2="-403.64508"
       gradientUnits="userSpaceOnUse" />
    <clipPath
       clipPathUnits="userSpaceOnUse"
       id="clipPath5494">
      <rect
         style="opacity:0.98000004;fill:#695c89;fill-opacity:1;stroke:#aa0000;stroke-width:0;stroke-miterlimit:4;stroke-dasharray:none;stroke-opacity:1"
         id="rect5496"
         width="68.96933"
         height="50.296413"
         x="-2.7109578"
         y="-7.7317243" />
    </clipPath>
    <clipPath
       clipPathUnits="userSpaceOnUse"
       id="clipPath6207">
      <rect
         style="opacity:0.98000004;fill:#695c89;fill-opacity:1;stroke:#aa0000;stroke-width:0;stroke-miterlimit:4;stroke-dasharray:none;stroke-opacity:1"
         id="rect6209"
         width="68.065804"
         height="50.296413"
         x="-2.7109578"
         y="-7.7317243" />
    </clipPath>
  </defs>
  <sodipodi:namedview
     pagecolor="#ffffff"
     bordercolor="#666666"
     borderopacity="1"
     objecttolerance="10"
     gridtolerance="10"
     guidetolerance="10"
     inkscape:pageopacity="0"
     inkscape:pageshadow="2"
     inkscape:window-width="1920"
     inkscape:window-height="1017"
     id="namedview3903"
     showgrid="false"
     inkscape:zoom="3.2578126"
     inkscape:cx="34.71088"
     inkscape:cy="30.613547"
     inkscape:window-x="0"
     inkscape:window-y="30"
     inkscape:window-maximized="1"
     inkscape:current-layer="svg3901"
     showguides="false" />
  <path
     inkscape:connector-curvature="0"
     d="m 115.5,21.555 c 0,-3.342 -2.713,-6.055 -6.055,-6.055 h -90.89 c -3.342,0 -6.055,2.713 -6.055,6.055 v 90.89 c 0,3.342 2.713,6.055 6.055,6.055 h 90.89 c 3.342,0 6.055,-2.713 6.055,-6.055 z"
     id="path3880-5"
     style="isolation:isolate;fill:#ffffff;fill-opacity:1;fill-rule:evenodd" />
  <g
     opacity="0.22"
     id="g3837">
    <radialGradient
       id="_rgradient_8"
       fx="50%"
       fy="50%"
       cx="50%"
       cy="50%"
       r="50%">
      <stop
         offset="0%"
         style="stop-color:rgb(0,0,0)"
         id="stop3830" />
      <stop
         offset="100%"
         style="stop-color:rgb(0,0,0)"
         id="stop3832" />
    </radialGradient>
    <path
       d=" M 119 118 C 118.995 121.291 94.169 123.999 64 123.999 C 33.831 123.999 9.005 121.291 9 118 C 9 118 9 117.999 9 117.999 C 9 114.707 33.828 111.999 64 111.999 C 94.172 111.999 119 114.707 119 117.999 C 119 117.999 119 118 119 118 Z "
       fill="url(#_rgradient_8)"
       id="path3835" />
  </g>
  <radialGradient
     id="_rgradient_11"
     fx="0"
     fy="0"
     cx="0.5"
     cy="0.5"
     r="1"
     gradientTransform="matrix(0,3.0859417,-3.7885534,0,0.51714766,-0.30680391)"
     xlink:href="#_lgradient_5">
    <stop
       offset="0%"
       style="stop-color:rgb(147,166,232)"
       id="stop3871" />
    <stop
       offset="19.130434782608695%"
       style="stop-color:rgb(94,108,159)"
       id="stop3873" />
    <stop
       offset="50%"
       style="stop-color:rgb(71,80,113)"
       id="stop3875" />
    <stop
       offset="100%"
       style="stop-color:rgb(57,65,94)"
       id="stop3877" />
  </radialGradient>
  <path
     d="m 115.5,21.555 c 0,-3.342 -2.713,-6.055 -6.055,-6.055 H 18.555001 c -3.342,0 -6.055,2.713 -6.055,6.055 v 90.89 c 0,3.342 2.713,6.055 6.055,6.055 H 109.445 c 3.342,0 6.055,-2.713 6.055,-6.055 z"
     id="path3880"
     style="fill:url(#linearGradient5077);fill-opacity:1;fill-rule:evenodd"
     inkscape:connector-curvature="0" />
  <linearGradient
     id="_lgradient_5"
     x1="50%"
     y1="-1.351386138613861%"
     x2="49.999999999999986%"
     y2="101.35158415841585%">
    <stop
       offset="0%"
       stop-opacity="0.3"
       style="stop-color:rgb(255,255,255)"
       id="stop3882" />
    <stop
       offset="6%"
       stop-opacity="0.0705882"
       style="stop-color:rgb(255,255,255)"
       id="stop3884" />
    <stop
       offset="95%"
       stop-opacity="0.0470588"
       style="stop-color:rgb(255,255,255)"
       id="stop3886" />
    <stop
       offset="100%"
       stop-opacity="0.117647"
       style="stop-color:rgb(255,255,255)"
       id="stop3888" />
  </linearGradient>
  <path
     d=" M 115.5 21.5 C 115.5 18.189 112.811 15.5 109.5 15.5 L 18.5 15.5 C 15.189 15.5 12.5 18.189 12.5 21.5 L 12.5 112.5 C 12.5 115.811 15.189 118.5 18.5 118.5 L 109.5 118.5 C 112.811 118.5 115.5 115.811 115.5 112.5 L 115.5 21.5 Z "
     fill-rule="evenodd"
     fill="none"
     vector-effect="non-scaling-stroke"
     stroke-width="1"
     stroke="rgb(47,55,79)"
     stroke-linejoin="round"
     stroke-linecap="round"
     stroke-miterlimit="4"
     id="path3893" />
  <path
     style="color:#fbc02d;overflow:visible;opacity:0.9;isolation:auto;mix-blend-mode:normal;solid-color:#000000;solid-opacity:1;fill:#ffffff;marker:none"
     d="M 13.422,0 11.678,0.078 C 10.603,0.126 9.523,0.263 8.862,0.437 5.669,1.275 2.541,3.375 1.052,5.677 0.257,6.91 -0.008,7.764 0,9.084 c 0.007,1.232 0.308,2.018 0.973,2.542 0.431,0.339 1.572,0.703 2.203,0.703 H 3.618 L 3.434,11.811 C 3.182,11.107 3.191,8.742 3.449,7.647 A 7.117,7.117 0 0 1 5.375,4.25 C 6.167,3.462 7.362,2.657 8.035,2.459 8.33,2.372 8.345,2.405 8.345,3.102 8.34,4.638 8.765,22.556 8.844,24.168 l 0.082,1.692 h 2.457 c 2.211,0 2.466,-0.024 2.552,-0.242 0.356,-0.9 9.462,-25.33 9.462,-25.384 0,-0.037 -0.538,-0.05 -1.195,-0.028 L 21.007,0.246 17.404,10.713 13.8,21.179 13.699,15.476 C 13.644,12.34 13.559,7.574 13.51,4.886 Z M 84.424,1.71 C 83.842,1.707 79.682,2.327 79.53,2.451 79.435,2.529 79.035,4.146 78.642,6.045 78.248,7.944 77.872,9.621 77.805,9.773 77.684,10.046 77.682,10.046 77.673,9.765 77.662,9.421 77.051,8.811 76.515,8.609 76.302,8.528 75.578,8.462 74.907,8.462 c -2.072,0 -3.588,0.642 -5.048,2.137 -2.097,2.148 -3.537,5.597 -3.743,8.964 -0.075,1.227 -0.134,1.474 -0.494,2.047 -0.528,0.841 -1.13,1.212 -1.962,1.212 -0.907,0 -1.324,-0.424 -1.324,-1.347 0,-0.515 1.466,-7.823 2.48,-12.36 L 64.932,8.594 62.426,8.631 59.92,8.669 59.796,9.399 59.672,10.128 59.421,9.565 C 59.027,8.685 58.286,8.418 56.415,8.484 55.073,8.53 54.861,8.576 53.91,9.029 c -3.161,1.504 -5.484,5.567 -5.939,10.387 -0.135,1.44 -0.17,1.56 -0.62,2.108 -0.518,0.632 -1.45,1.16 -2.047,1.16 -0.206,0 -0.587,-0.088 -0.846,-0.196 -0.373,-0.156 -0.49,-0.299 -0.562,-0.687 -0.12,-0.635 -0.114,-0.663 2.129,-11.13 1.05,-4.898 1.897,-8.922 1.882,-8.942 -0.059,-0.081 -4.948,0.649 -5.039,0.752 -0.054,0.062 -0.858,3.685 -1.786,8.052 -0.927,4.367 -1.807,8.394 -1.955,8.95 -0.526,1.976 -1.404,3.158 -2.45,3.298 -1.183,0.16 -1.712,-0.289 -1.702,-1.439 0.004,-0.363 0.569,-3.308 1.256,-6.545 0.688,-3.236 1.25,-5.955 1.25,-6.04 0,-0.111 -0.723,-0.157 -2.47,-0.157 h -2.47 L 32.448,9.221 C 32.34,9.946 32.232,9.997 31.984,9.437 31.69,8.772 30.859,8.462 29.372,8.462 c -2.221,0 -3.594,0.63 -5.25,2.413 -1.969,2.119 -3.135,4.883 -3.515,8.33 -0.536,4.86 2.102,7.722 6.007,6.516 1.045,-0.323 2.298,-1.194 3.065,-2.13 l 0.531,-0.648 0.227,0.735 c 0.312,1.005 0.626,1.441 1.344,1.862 1.227,0.72 3.404,0.54 4.991,-0.41 0.408,-0.244 1.063,-0.797 1.456,-1.229 l 0.714,-0.785 0.242,0.683 c 0.63,1.775 2.45,2.533 4.813,2.006 1.307,-0.292 2.32,-0.88 3.387,-1.964 l 0.858,-0.873 0.261,0.59 a 4.24,4.24 0 0 0 1.877,1.996 c 0.614,0.321 0.868,0.368 2.015,0.371 1.2,0.004 1.393,-0.034 2.266,-0.448 0.695,-0.329 1.23,-0.731 1.966,-1.48 0.997,-1.014 1.013,-1.022 1.092,-0.652 0.468,2.177 2.29,3.1 4.82,2.442 1.213,-0.316 2.079,-0.85 3.023,-1.865 l 0.848,-0.912 0.31,0.641 c 0.397,0.825 1.182,1.617 1.968,1.986 0.498,0.234 0.882,0.292 1.934,0.29 1.134,-0.002 1.42,-0.054 2.117,-0.378 a 6.428,6.428 0 0 0 2.446,-1.923 c 0.56,-0.708 0.597,-0.709 0.745,-0.017 0.148,0.689 0.855,1.555 1.502,1.838 1.94,0.85 4.484,0.193 6.245,-1.612 0.807,-0.827 0.864,-0.86 0.94,-0.557 0.159,0.63 1.011,1.554 1.835,1.988 1.886,0.995 4.278,0.977 6.3,-0.045 1.024,-0.518 2.695,-2.242 3.394,-3.503 0.726,-1.31 1.352,-3.234 1.568,-4.82 l 0.168,-1.233 0.903,-0.22 a 92.432,92.432 0 0 0 1.203,-0.302 l 0.3,-0.08 -0.26,0.837 a 14.197,14.197 0 0 0 -0.658,4.92 c 0.05,1.453 0.106,1.764 0.45,2.522 0.434,0.96 1.179,1.722 2.06,2.108 2.121,0.928 5.155,0.616 7.556,-0.777 1.075,-0.624 3.294,-2.813 4.117,-4.06 l 0.592,-0.898 -0.535,-0.04 c -0.5,-0.038 -0.607,0.029 -1.655,1.035 -1.9,1.827 -3.409,2.492 -5.339,2.353 -1.68,-0.12 -2.164,-0.766 -2.164,-2.892 0,-4.828 2.865,-10.804 4.767,-9.938 0.546,0.249 0.707,1.074 0.445,2.27 -0.251,1.142 -0.191,1.263 0.708,1.432 0.633,0.119 1.356,-0.262 1.734,-0.913 0.416,-0.718 0.4,-2.36 -0.033,-3.113 -0.602,-1.051 -1.852,-1.588 -3.681,-1.582 -1.279,0.005 -1.997,0.18 -3.25,0.795 -1.248,0.613 -2.913,2.182 -3.584,3.377 -0.425,0.757 -0.484,0.804 -1.345,1.07 -0.495,0.153 -1.195,0.278 -1.555,0.278 H 98 l -0.075,-1.07 c -0.142,-2.02 -0.969,-3.446 -2.34,-4.04 -1.488,-0.645 -3.822,-0.468 -5.61,0.425 -0.925,0.463 -2.395,1.751 -3.113,2.73 -1.403,1.91 -2.504,5.069 -2.657,7.616 -0.095,1.593 -0.13,1.716 -0.64,2.297 -0.732,0.834 -1.755,1.103 -2.579,0.677 -0.443,-0.229 -0.562,-0.46 -0.56,-1.086 0,-0.24 0.923,-4.756 2.05,-10.035 C 83.602,6.083 84.508,1.745 84.489,1.72 84.485,1.713 84.461,1.71 84.423,1.71 Z m 9.384,8.705 c 0.608,0.003 1.107,0.43 1.262,1.262 0.12,0.64 0.112,0.664 -0.392,1.125 -0.495,0.454 -0.513,0.505 -0.513,1.395 0,0.86 0.028,0.948 0.426,1.288 l 0.427,0.364 -0.18,0.95 c -0.56,2.961 -2.062,5.663 -3.347,6.02 -0.276,0.077 -0.533,0.131 -0.571,0.12 a 7.364,7.364 0 0 0 -0.444,-0.077 c -0.53,-0.08 -1.04,-0.75 -1.155,-1.515 -0.393,-2.62 1.062,-7.812 2.782,-9.933 0.547,-0.673 1.169,-1.002 1.705,-1 z m -63.294,0.118 c 0.642,0 1.306,0.617 1.306,1.214 0,0.751 -1.665,8.237 -1.988,8.935 -0.385,0.834 -0.93,1.403 -1.671,1.743 -0.665,0.305 -1.116,0.317 -1.621,0.043 -0.857,-0.465 -1.097,-1.865 -0.738,-4.31 0.412,-2.805 1.331,-5.074 2.63,-6.496 0.755,-0.826 1.315,-1.13 2.082,-1.13 z m 27.245,0 c 0.63,0 1.087,0.262 1.321,0.755 0.198,0.418 0.163,0.659 -0.686,4.641 -0.58,2.722 -1.02,4.455 -1.247,4.923 -0.691,1.42 -2.216,2.187 -3.242,1.63 -0.724,-0.395 -0.988,-1.563 -0.804,-3.548 0.412,-4.424 2.617,-8.401 4.658,-8.401 z m 18.17,0.026 c 0.155,-0.002 0.309,0.016 0.462,0.054 0.381,0.094 0.58,0.251 0.77,0.61 l 0.258,0.484 -0.92,4.35 c -1.065,5.029 -1.231,5.45 -2.432,6.178 -0.736,0.446 -1.307,0.544 -1.858,0.319 -0.996,-0.408 -1.266,-1.954 -0.822,-4.703 0.3,-1.856 0.682,-3.06 1.419,-4.466 0.966,-1.843 2.046,-2.815 3.124,-2.826 z"
     overflow="visible"
     id="path2"
     clip-path="url(#clipPath5494)"
     inkscape:connector-curvature="0"
     transform="matrix(1.0666538,0,0,1.0666538,118.44689,90.191024)" />
  <path
     inkscape:connector-curvature="0"
     transform="matrix(1.2263424,0,0,1.2263424,21.931193,51.514766)"
     style="color:#fbc02d;overflow:visible;opacity:0.9;isolation:auto;mix-blend-mode:normal;solid-color:#000000;solid-opacity:1;fill:#ffffff;marker:none"
     d="M 13.422,0 11.678,0.078 C 10.603,0.126 9.523,0.263 8.862,0.437 5.669,1.275 2.541,3.375 1.052,5.677 0.257,6.91 -0.008,7.764 0,9.084 c 0.007,1.232 0.308,2.018 0.973,2.542 0.431,0.339 1.572,0.703 2.203,0.703 H 3.618 L 3.434,11.811 C 3.182,11.107 3.191,8.742 3.449,7.647 A 7.117,7.117 0 0 1 5.375,4.25 C 6.167,3.462 7.362,2.657 8.035,2.459 8.33,2.372 8.345,2.405 8.345,3.102 8.34,4.638 8.765,22.556 8.844,24.168 l 0.082,1.692 h 2.457 c 2.211,0 2.466,-0.024 2.552,-0.242 0.356,-0.9 9.462,-25.33 9.462,-25.384 0,-0.037 -0.538,-0.05 -1.195,-0.028 L 21.007,0.246 17.404,10.713 13.8,21.179 13.699,15.476 C 13.644,12.34 13.559,7.574 13.51,4.886 Z M 84.424,1.71 C 83.842,1.707 79.682,2.327 79.53,2.451 79.435,2.529 79.035,4.146 78.642,6.045 78.248,7.944 77.872,9.621 77.805,9.773 77.684,10.046 77.682,10.046 77.673,9.765 77.662,9.421 77.051,8.811 76.515,8.609 76.302,8.528 75.578,8.462 74.907,8.462 c -2.072,0 -3.588,0.642 -5.048,2.137 -2.097,2.148 -3.537,5.597 -3.743,8.964 -0.075,1.227 -0.134,1.474 -0.494,2.047 -0.528,0.841 -1.13,1.212 -1.962,1.212 -0.907,0 -1.324,-0.424 -1.324,-1.347 0,-0.515 1.466,-7.823 2.48,-12.36 L 64.932,8.594 62.426,8.631 59.92,8.669 59.796,9.399 59.672,10.128 59.421,9.565 C 59.027,8.685 58.286,8.418 56.415,8.484 55.073,8.53 54.861,8.576 53.91,9.029 c -3.161,1.504 -5.484,5.567 -5.939,10.387 -0.135,1.44 -0.17,1.56 -0.62,2.108 -0.518,0.632 -1.45,1.16 -2.047,1.16 -0.206,0 -0.587,-0.088 -0.846,-0.196 -0.373,-0.156 -0.49,-0.299 -0.562,-0.687 -0.12,-0.635 -0.114,-0.663 2.129,-11.13 1.05,-4.898 1.897,-8.922 1.882,-8.942 -0.059,-0.081 -4.948,0.649 -5.039,0.752 -0.054,0.062 -0.858,3.685 -1.786,8.052 -0.927,4.367 -1.807,8.394 -1.955,8.95 -0.526,1.976 -1.404,3.158 -2.45,3.298 -1.183,0.16 -1.712,-0.289 -1.702,-1.439 0.004,-0.363 0.569,-3.308 1.256,-6.545 0.688,-3.236 1.25,-5.955 1.25,-6.04 0,-0.111 -0.723,-0.157 -2.47,-0.157 h -2.47 L 32.448,9.221 C 32.34,9.946 32.232,9.997 31.984,9.437 31.69,8.772 30.859,8.462 29.372,8.462 c -2.221,0 -3.594,0.63 -5.25,2.413 -1.969,2.119 -3.135,4.883 -3.515,8.33 -0.536,4.86 2.102,7.722 6.007,6.516 1.045,-0.323 2.298,-1.194 3.065,-2.13 l 0.531,-0.648 0.227,0.735 c 0.312,1.005 0.626,1.441 1.344,1.862 1.227,0.72 3.404,0.54 4.991,-0.41 0.408,-0.244 1.063,-0.797 1.456,-1.229 l 0.714,-0.785 0.242,0.683 c 0.63,1.775 2.45,2.533 4.813,2.006 1.307,-0.292 2.32,-0.88 3.387,-1.964 l 0.858,-0.873 0.261,0.59 a 4.24,4.24 0 0 0 1.877,1.996 c 0.614,0.321 0.868,0.368 2.015,0.371 1.2,0.004 1.393,-0.034 2.266,-0.448 0.695,-0.329 1.23,-0.731 1.966,-1.48 0.997,-1.014 1.013,-1.022 1.092,-0.652 0.468,2.177 2.29,3.1 4.82,2.442 1.213,-0.316 2.079,-0.85 3.023,-1.865 l 0.848,-0.912 0.31,0.641 c 0.397,0.825 1.182,1.617 1.968,1.986 0.498,0.234 0.882,0.292 1.934,0.29 1.134,-0.002 1.42,-0.054 2.117,-0.378 a 6.428,6.428 0 0 0 2.446,-1.923 c 0.56,-0.708 0.597,-0.709 0.745,-0.017 0.148,0.689 0.855,1.555 1.502,1.838 1.94,0.85 4.484,0.193 6.245,-1.612 0.807,-0.827 0.864,-0.86 0.94,-0.557 0.159,0.63 1.011,1.554 1.835,1.988 1.886,0.995 4.278,0.977 6.3,-0.045 1.024,-0.518 2.695,-2.242 3.394,-3.503 0.726,-1.31 1.352,-3.234 1.568,-4.82 l 0.168,-1.233 0.903,-0.22 a 92.432,92.432 0 0 0 1.203,-0.302 l 0.3,-0.08 -0.26,0.837 a 14.197,14.197 0 0 0 -0.658,4.92 c 0.05,1.453 0.106,1.764 0.45,2.522 0.434,0.96 1.179,1.722 2.06,2.108 2.121,0.928 5.155,0.616 7.556,-0.777 1.075,-0.624 3.294,-2.813 4.117,-4.06 l 0.592,-0.898 -0.535,-0.04 c -0.5,-0.038 -0.607,0.029 -1.655,1.035 -1.9,1.827 -3.409,2.492 -5.339,2.353 -1.68,-0.12 -2.164,-0.766 -2.164,-2.892 0,-4.828 2.865,-10.804 4.767,-9.938 0.546,0.249 0.707,1.074 0.445,2.27 -0.251,1.142 -0.191,1.263 0.708,1.432 0.633,0.119 1.356,-0.262 1.734,-0.913 0.416,-0.718 0.4,-2.36 -0.033,-3.113 -0.602,-1.051 -1.852,-1.588 -3.681,-1.582 -1.279,0.005 -1.997,0.18 -3.25,0.795 -1.248,0.613 -2.913,2.182 -3.584,3.377 -0.425,0.757 -0.484,0.804 -1.345,1.07 -0.495,0.153 -1.195,0.278 -1.555,0.278 H 98 l -0.075,-1.07 c -0.142,-2.02 -0.969,-3.446 -2.34,-4.04 -1.488,-0.645 -3.822,-0.468 -5.61,0.425 -0.925,0.463 -2.395,1.751 -3.113,2.73 -1.403,1.91 -2.504,5.069 -2.657,7.616 -0.095,1.593 -0.13,1.716 -0.64,2.297 -0.732,0.834 -1.755,1.103 -2.579,0.677 -0.443,-0.229 -0.562,-0.46 -0.56,-1.086 0,-0.24 0.923,-4.756 2.05,-10.035 C 83.602,6.083 84.508,1.745 84.489,1.72 84.485,1.713 84.461,1.71 84.423,1.71 Z m 9.384,8.705 c 0.608,0.003 1.107,0.43 1.262,1.262 0.12,0.64 0.112,0.664 -0.392,1.125 -0.495,0.454 -0.513,0.505 -0.513,1.395 0,0.86 0.028,0.948 0.426,1.288 l 0.427,0.364 -0.18,0.95 c -0.56,2.961 -2.062,5.663 -3.347,6.02 -0.276,0.077 -0.533,0.131 -0.571,0.12 a 7.364,7.364 0 0 0 -0.444,-0.077 c -0.53,-0.08 -1.04,-0.75 -1.155,-1.515 -0.393,-2.62 1.062,-7.812 2.782,-9.933 0.547,-0.673 1.169,-1.002 1.705,-1 z m -63.294,0.118 c 0.642,0 1.306,0.617 1.306,1.214 0,0.751 -1.665,8.237 -1.988,8.935 -0.385,0.834 -0.93,1.403 -1.671,1.743 -0.665,0.305 -1.116,0.317 -1.621,0.043 -0.857,-0.465 -1.097,-1.865 -0.738,-4.31 0.412,-2.805 1.331,-5.074 2.63,-6.496 0.755,-0.826 1.315,-1.13 2.082,-1.13 z m 27.245,0 c 0.63,0 1.087,0.262 1.321,0.755 0.198,0.418 0.163,0.659 -0.686,4.641 -0.58,2.722 -1.02,4.455 -1.247,4.923 -0.691,1.42 -2.216,2.187 -3.242,1.63 -0.724,-0.395 -0.988,-1.563 -0.804,-3.548 0.412,-4.424 2.617,-8.401 4.658,-8.401 z m 18.17,0.026 c 0.155,-0.002 0.309,0.016 0.462,0.054 0.381,0.094 0.58,0.251 0.77,0.61 l 0.258,0.484 -0.92,4.35 c -1.065,5.029 -1.231,5.45 -2.432,6.178 -0.736,0.446 -1.307,0.544 -1.858,0.319 -0.996,-0.408 -1.266,-1.954 -0.822,-4.703 0.3,-1.856 0.682,-3.06 1.419,-4.466 0.966,-1.843 2.046,-2.815 3.124,-2.826 z"
     overflow="visible"
     id="path2-3"
     clip-path="url(#clipPath6207)" />
</svg>
